<?xml version="1.0"?>
<svg width="1280" height="1024" xmlns="http://www.w3.org/2000/svg" xmlns:svg="http://www.w3.org/2000/svg">
<g>
<title>Borders</title>
<line id="north" y2="50" x2="1230" y1="50" x1="50" stroke-width="5" stroke="#666666"/>
<line id="east" y2="974" x2="1230" y1="50" x1="1230" stroke-width="5" stroke="#666666"/>
<line id="south" y2="974" x2="50" y1="974" x1="1230" stroke-width="5" stroke="#666666"/>
<line id="west" y2="50" x2="50" y1="974" x1="50" stroke-width="5" stroke="#666666"/>
</g>
<g>
<title>Titles</title>
<text text-anchor="middle" font-family="Sans-serif" font-size="24" id="state" y="40" x="640">Colorado</text>
<text text-anchor="middle" font-family="Sans-serif" font-size="24" id="distance" y="1014" x="640">1438 miles</text>
</g>
<g>
<title>Legs</title>
<line id="leg0" y2="861.0903583333338" x2="188.79953174603207" y1="861.0865083333338" x1="188.80796031746092" stroke-width="3" stroke="#999999"/>
<line id="leg1" y2="860.5064416666669" x2="188.78361111111172" y1="861.0903583333338" x1="188.79953174603207" stroke-width="3" stroke="#999999"/>
<line id="leg2" y2="868.8372000000005" x2="189.44900000000075" y1="860.5064416666669" x1="188.78361111111172" stroke-width="3" stroke="#999999"/>
<line id="leg3" y2="843.5407749999995" x2="70.02878571428555" y1="868.8372000000005" x1="189.44900000000075" stroke-width="3" stroke="#999999"/>
<line id="leg4" y2="707.2168950000006" x2="200.55785714285776" y1="843.5407749999995" x1="70.02878571428555" stroke-width="3" stroke="#999999"/>
<line id="leg5" y2="736.4016916666669" x2="225.14915079365045" y1="707.2168950000006" x1="200.55785714285776" stroke-width="3" stroke="#999999"/>
<line id="leg6" y2="736.8322500000008" x2="225.12480158730125" y1="736.4016916666669" x1="225.14915079365045" stroke-width="3" stroke="#999999"/>
<line id="leg7" y2="567.1627499999998" x2="349.3970634920622" y1="736.8322500000008" x1="225.12480158730125" stroke-width="3" stroke="#999999"/>
<line id="leg8" y2="418.0335133333344" x2="367.4321413492078" y1="567.1627499999998" x1="349.3970634920622" stroke-width="3" stroke="#999999"/>
<line id="leg9" y2="313.8526416666667" x2="365.6646746031748" y1="418.0335133333344" x1="367.4321413492078" stroke-width="3" stroke="#999999"/>
<line id="leg10" y2="313.8455833333337" x2="365.66888888889036" y1="313.8526416666667" x1="365.6646746031748" stroke-width="3" stroke="#999999"/>
<line id="leg11" y2="310.61479166666754" x2="366.02288888889024" y1="313.8455833333337" x1="365.66888888889036" stroke-width="3" stroke="#999999"/>
<line id="leg12" y2="313.2909779999994" x2="405.2049200000017" y1="310.61479166666754" x1="366.02288888889024" stroke-width="3" stroke="#999999"/>
<line id="leg13" y2="318.6413999999993" x2="426.5531896825388" y1="313.2909779999994" x1="405.2049200000017" stroke-width="3" stroke="#999999"/>
<line id="leg14" y2="317.0373616666671" x2="495.5498031746033" y1="318.6413999999993" x1="426.5531896825388" stroke-width="3" stroke="#999999"/>
<line id="leg15" y2="343.0414166666673" x2="496.70507936508056" y1="317.0373616666671" x1="495.5498031746033" stroke-width="3" stroke="#999999"/>
<line id="leg16" y2="249.9355833333344" x2="542.1210317460313" y1="343.0414166666673" x1="496.70507936508056" stroke-width="3" stroke="#999999"/>
<line id="leg17" y2="240.2464166666656" x2="588.4641269841271" y1="249.9355833333344" x1="542.1210317460313" stroke-width="3" stroke="#999999"/>
<line id="leg18" y2="227.06998416666755" x2="627.0056428571437" y1="240.2464166666656" x1="588.4641269841271" stroke-width="3" stroke="#999999"/>
<line id="leg19" y2="226.20305399999958" x2="631.9619799999991" y1="227.06998416666755" x1="627.0056428571437" stroke-width="3" stroke="#999999"/>
<line id="leg20" y2="227.28474999999978" x2="636.1979365079353" y1="226.20305399999958" x1="631.9619799999991" stroke-width="3" stroke="#999999"/>
<line id="leg21" y2="226.34278333333413" x2="637.5081111111112" y1="227.28474999999978" x1="636.1979365079353" stroke-width="3" stroke="#999999"/>
<line id="leg22" y2="236.52089999999944" x2="652.5905995238103" y1="226.34278333333413" x1="637.5081111111112" stroke-width="3" stroke="#999999"/>
<line id="leg23" y2="231.07379166666638" x2="656.8385714285719" y1="236.52089999999944" x1="652.5905995238103" stroke-width="3" stroke="#999999"/>
<line id="leg24" y2="231.3869249999997" x2="659.4762460317475" y1="231.07379166666638" x1="656.8385714285719" stroke-width="3" stroke="#999999"/>
<line id="leg25" y2="219.01751666666664" x2="666.0926746031753" y1="231.3869249999997" x1="659.4762460317475" stroke-width="3" stroke="#999999"/>
<line id="leg26" y2="205.1857243333327" x2="683.4895784920619" y1="219.01751666666664" x1="666.0926746031753" stroke-width="3" stroke="#999999"/>
<line id="leg27" y2="194.0592499999998" x2="657.2319047619064" y1="205.1857243333327" x1="683.4895784920619" stroke-width="3" stroke="#999999"/>
<line id="leg28" y2="193.45608333333388" x2="657.3911111111124" y1="194.0592499999998" x1="657.2319047619064" stroke-width="3" stroke="#999999"/>
<line id="leg29" y2="191.99950000000035" x2="657.0773809523823" y1="193.45608333333388" x1="657.3911111111124" stroke-width="3" stroke="#999999"/>
<line id="leg30" y2="194.43783333333366" x2="654.9000000000009" y1="191.99950000000035" x1="657.0773809523823" stroke-width="3" stroke="#999999"/>
<line id="leg31" y2="151.66240833333177" x2="650.7231746031741" y1="194.43783333333366" x1="654.9000000000009" stroke-width="3" stroke="#999999"/>
<line id="leg32" y2="136.75841666666713" x2="654.9889682539688" y1="151.66240833333177" x1="650.7231746031741" stroke-width="3" stroke="#999999"/>
<line id="leg33" y2="136.75199999999973" x2="654.9936507936508" y1="136.75841666666713" x1="654.9889682539688" stroke-width="3" stroke="#999999"/>
<line id="leg34" y2="136.75199999999973" x2="654.9936507936508" y1="136.75199999999973" x1="654.9936507936508" stroke-width="3" stroke="#999999"/>
<line id="leg35" y2="139.69083333333322" x2="661.2448412698427" y1="136.75199999999973" x1="654.9936507936508" stroke-width="3" stroke="#999999"/>
<line id="leg36" y2="139.8448333333334" x2="661.8020634920651" y1="139.69083333333322" x1="661.2448412698427" stroke-width="3" stroke="#999999"/>
<line id="leg37" y2="139.3712833333341" x2="666.3698809523805" y1="139.8448333333334" x1="661.8020634920651" stroke-width="3" stroke="#999999"/>
<line id="leg38" y2="119.96130299999926" x2="685.1395228571423" y1="139.3712833333341" x1="666.3698809523805" stroke-width="3" stroke="#999999"/>
<line id="leg39" y2="110.27683333333337" x2="661.0715873015886" y1="119.96130299999926" x1="685.1395228571423" stroke-width="3" stroke="#999999"/>
<line id="leg40" y2="100.15133333333372" x2="661.0247619047625" y1="110.27683333333337" x1="661.0715873015886" stroke-width="3" stroke="#999999"/>
<line id="leg41" y2="98.21221666666615" x2="660.0189523809531" y1="100.15133333333372" x1="661.0247619047625" stroke-width="3" stroke="#999999"/>
<line id="leg42" y2="95.54865833333358" x2="661.496293650795" y1="98.21221666666615" x1="660.0189523809531" stroke-width="3" stroke="#999999"/>
<line id="leg43" y2="95.56469999999968" x2="661.5253253968262" y1="95.54865833333358" x1="661.496293650795" stroke-width="3" stroke="#999999"/>
<line id="leg44" y2="95.31059999999945" x2="661.5248571428575" y1="95.56469999999968" x1="661.5253253968262" stroke-width="3" stroke="#999999"/>
<line id="leg45" y2="94.73566666666564" x2="661.3946825396827" y1="95.31059999999945" x1="661.5248571428575" stroke-width="3" stroke="#999999"/>
<line id="leg46" y2="93.92113499999994" x2="663.012687301589" y1="94.73566666666564" x1="661.3946825396827" stroke-width="3" stroke="#999999"/>
<line id="leg47" y2="94.8665666666667" x2="663.6277857142852" y1="93.92113499999994" x1="663.012687301589" stroke-width="3" stroke="#999999"/>
<line id="leg48" y2="94.89030833333305" x2="664.4210079365083" y1="94.8665666666667" x1="663.6277857142852" stroke-width="3" stroke="#999999"/>
<line id="leg49" y2="94.79213333333308" x2="666.5951111111112" y1="94.89030833333305" x1="664.4210079365083" stroke-width="3" stroke="#999999"/>
<line id="leg50" y2="96.30582499999966" x2="667.1958809523815" y1="94.79213333333308" x1="666.5951111111112" stroke-width="3" stroke="#999999"/>
<line id="leg51" y2="133.51800000000068" x2="715.2148571428576" y1="96.30582499999966" x1="667.1958809523815" stroke-width="3" stroke="#999999"/>
<line id="leg52" y2="132.10569166666698" x2="726.4562301587304" y1="133.51800000000068" x1="715.2148571428576" stroke-width="3" stroke="#999999"/>
<line id="leg53" y2="131.34916666666646" x2="726.7957142857134" y1="132.10569166666698" x1="726.4562301587304" stroke-width="3" stroke="#999999"/>
<line id="leg54" y2="251.02449166666722" x2="664.8695952380954" y1="131.34916666666646" x1="726.7957142857134" stroke-width="3" stroke="#999999"/>
<line id="leg55" y2="276.6680583333338" x2="660.110261904762" y1="251.02449166666722" x1="664.8695952380954" stroke-width="3" stroke="#999999"/>
<line id="leg56" y2="280.22866666666664" x2="668.5027777777791" y1="276.6680583333338" x1="660.110261904762" stroke-width="3" stroke="#999999"/>
<line id="leg57" y2="286.1146749999995" x2="673.1492619047614" y1="280.22866666666664" x1="668.5027777777791" stroke-width="3" stroke="#999999"/>
<line id="leg58" y2="287.87669166666615" x2="676.2275634920636" y1="286.1146749999995" x1="673.1492619047614" stroke-width="3" stroke="#999999"/>
<line id="leg59" y2="289.85002199999985" x2="673.3088428571417" y1="287.87669166666615" x1="676.2275634920636" stroke-width="3" stroke="#999999"/>
<line id="leg60" y2="291.67288149999996" x2="671.7178938095245" y1="289.85002199999985" x1="673.3088428571417" stroke-width="3" stroke="#999999"/>
<line id="leg61" y2="289.9012783333329" x2="668.3732119047629" y1="291.67288149999996" x1="671.7178938095245" stroke-width="3" stroke="#999999"/>
<line id="leg62" y2="300.40560550000026" x2="674.0834566666671" y1="289.9012783333329" x1="668.3732119047629" stroke-width="3" stroke="#999999"/>
<line id="leg63" y2="304.96619999999996" x2="675.8365995238083" y1="300.40560550000026" x1="674.0834566666671" stroke-width="3" stroke="#999999"/>
<line id="leg64" y2="304.3296666666674" x2="677.5307142857141" y1="304.96619999999996" x1="675.8365995238083" stroke-width="3" stroke="#999999"/>
<line id="leg65" y2="311.18010000000106" x2="672.5157423809535" y1="304.3296666666674" x1="677.5307142857141" stroke-width="3" stroke="#999999"/>
<line id="leg66" y2="312.01173850000066" x2="673.6114285714277" y1="311.18010000000106" x1="672.5157423809535" stroke-width="3" stroke="#999999"/>
<line id="leg67" y2="324.85529999999875" x2="670.357999999999" y1="312.01173850000066" x1="673.6114285714277" stroke-width="3" stroke="#999999"/>
<line id="leg68" y2="330.56741666666517" x2="676.0369841269833" y1="324.85529999999875" x1="670.357999999999" stroke-width="3" stroke="#999999"/>
<line id="leg69" y2="311.22630000000095" x2="705.994028095239" y1="330.56741666666517" x1="676.0369841269833" stroke-width="3" stroke="#999999"/>
<line id="leg70" y2="289.0528795000002" x2="701.5289080952389" y1="311.22630000000095" x1="705.994028095239" stroke-width="3" stroke="#999999"/>
<line id="leg71" y2="283.317008333333" x2="678.134293650794" y1="289.0528795000002" x1="701.5289080952389" stroke-width="3" stroke="#999999"/>
<line id="leg72" y2="287.3780910000005" x2="637.5860285714291" y1="283.317008333333" x1="678.134293650794" stroke-width="3" stroke="#999999"/>
<line id="leg73" y2="290.6865500000003" x2="587.0223730158727" y1="287.3780910000005" x1="637.5860285714291" stroke-width="3" stroke="#999999"/>
<line id="leg74" y2="368.1055583333344" x2="593.8392142857136" y1="290.6865500000003" x1="587.0223730158727" stroke-width="3" stroke="#999999"/>
<line id="leg75" y2="375.00860833333377" x2="610.7862619047633" y1="368.1055583333344" x1="593.8392142857136" stroke-width="3" stroke="#999999"/>
<line id="leg76" y2="463.27819999999974" x2="665.6328492063498" y1="375.00860833333377" x1="610.7862619047633" stroke-width="3" stroke="#999999"/>
<line id="leg77" y2="439.8852149999989" x2="697.9381400000019" y1="463.27819999999974" x1="665.6328492063498" stroke-width="3" stroke="#999999"/>
<line id="leg78" y2="439.8621149999998" x2="697.9531428571429" y1="439.8852149999989" x1="697.9381400000019" stroke-width="3" stroke="#999999"/>
<line id="leg79" y2="463.5162583333339" x2="706.0309920634922" y1="439.8621149999998" x1="697.9531428571429" stroke-width="3" stroke="#999999"/>
<line id="leg80" y2="487.4007600000002" x2="704.9670628571446" y1="463.5162583333339" x1="706.0309920634922" stroke-width="3" stroke="#999999"/>
<line id="leg81" y2="490.2532250000007" x2="705.8970714285728" y1="487.4007600000002" x1="704.9670628571446" stroke-width="3" stroke="#999999"/>
<line id="leg82" y2="500.2850416666661" x2="703.7866507936511" y1="490.2532250000007" x1="705.8970714285728" stroke-width="3" stroke="#999999"/>
<line id="leg83" y2="632.3881666666674" x2="739.9878333333332" y1="500.2850416666661" x1="703.7866507936511" stroke-width="3" stroke="#999999"/>
<line id="leg84" y2="341.37457200000006" x2="712.2139485714284" y1="632.3881666666674" x1="739.9878333333332" stroke-width="3" stroke="#999999"/>
<line id="leg85" y2="209.95204999999885" x2="338.7419444444452" y1="341.37457200000006" x1="712.2139485714284" stroke-width="3" stroke="#999999"/>
<line id="leg86" y2="116.1705416666665" x2="361.91349206349184" y1="209.95204999999885" x1="338.7419444444452" stroke-width="3" stroke="#999999"/>
<line id="leg87" y2="117.94218333333343" x2="292.69338095238106" y1="116.1705416666665" x1="361.91349206349184" stroke-width="3" stroke="#999999"/>
<line id="leg88" y2="335.5063250000011" x2="282.67883333333515" y1="117.94218333333343" x1="292.69338095238106" stroke-width="3" stroke="#999999"/>
<line id="leg89" y2="425.2331416666662" x2="45.06288888888841" y1="335.5063250000011" x1="282.67883333333515" stroke-width="3" stroke="#999999"/>
<line id="leg90" y2="815.8214166666658" x2="528.1576984126992" y1="425.2331416666662" x1="45.06288888888841" stroke-width="3" stroke="#999999"/>
<line id="leg91" y2="861.0865083333338" x2="188.80796031746092" y1="815.8214166666658" x1="528.1576984126992" stroke-width="3" stroke="#999999"/>
</g>
<g>
<title>Locations</title>
<text font-family="Sans-serif" font-size="16" id="id0" y="861.0865083333338" x="188.80796031746092">davematt</text>
<text font-family="Sans-serif" font-size="16" id="id1" y="861.0903583333338" x="188.79953174603207">spceo</text>
<text font-family="Sans-serif" font-size="16" id="id2" y="860.5064416666669" x="188.78361111111172">jnewell</text>
<text font-family="Sans-serif" font-size="16" id="id3" y="868.8372000000005" x="189.44900000000075">wbrown64</text>
<text font-family="Sans-serif" font-size="16" id="id4" y="843.5407749999995" x="70.02878571428555">kcribari</text>
<text font-family="Sans-serif" font-size="16" id="id5" y="707.2168950000006" x="200.55785714285776">tjnolan</text>
<text font-family="Sans-serif" font-size="16" id="id6" y="736.4016916666669" x="225.14915079365045">zongyw</text>
<text font-family="Sans-serif" font-size="16" id="id7" y="736.8322500000008" x="225.12480158730125">etyree</text>
<text font-family="Sans-serif" font-size="16" id="id8" y="567.1627499999998" x="349.3970634920622">maierwm</text>
<text font-family="Sans-serif" font-size="16" id="id9" y="418.0335133333344" x="367.4321413492078">shirazi</text>
<text font-family="Sans-serif" font-size="16" id="id10" y="313.8526416666667" x="365.6646746031748">pello</text>
<text font-family="Sans-serif" font-size="16" id="id11" y="313.8455833333337" x="365.66888888889036">paultrap</text>
<text font-family="Sans-serif" font-size="16" id="id12" y="310.61479166666754" x="366.02288888889024">benmertz</text>
<text font-family="Sans-serif" font-size="16" id="id13" y="313.2909779999994" x="405.2049200000017">jfmccoy</text>
<text font-family="Sans-serif" font-size="16" id="id14" y="318.6413999999993" x="426.5531896825388">sswensen</text>
<text font-family="Sans-serif" font-size="16" id="id15" y="317.0373616666671" x="495.5498031746033">teamfor10</text>
<text font-family="Sans-serif" font-size="16" id="id16" y="343.0414166666673" x="496.70507936508056">benascor</text>
<text font-family="Sans-serif" font-size="16" id="id17" y="249.9355833333344" x="542.1210317460313">jcedward</text>
<text font-family="Sans-serif" font-size="16" id="id18" y="240.2464166666656" x="588.4641269841271">slofadop</text>
<text font-family="Sans-serif" font-size="16" id="id19" y="227.06998416666755" x="627.0056428571437">jdcao</text>
<text font-family="Sans-serif" font-size="16" id="id20" y="226.20305399999958" x="631.9619799999991">mblaisus</text>
<text font-family="Sans-serif" font-size="16" id="id21" y="227.28474999999978" x="636.1979365079353">ctcochra</text>
<text font-family="Sans-serif" font-size="16" id="id22" y="226.34278333333413" x="637.5081111111112">dlennox</text>
<text font-family="Sans-serif" font-size="16" id="id23" y="236.52089999999944" x="652.5905995238103">mkor</text>
<text font-family="Sans-serif" font-size="16" id="id24" y="231.07379166666638" x="656.8385714285719">cokin</text>
<text font-family="Sans-serif" font-size="16" id="id25" y="231.3869249999997" x="659.4762460317475">skorrico</text>
<text font-family="Sans-serif" font-size="16" id="id26" y="219.01751666666664" x="666.0926746031753">nickwalt</text>
<text font-family="Sans-serif" font-size="16" id="id27" y="205.1857243333327" x="683.4895784920619">cyancey</text>
<text font-family="Sans-serif" font-size="16" id="id28" y="194.0592499999998" x="657.2319047619064">xiwei26</text>
<text font-family="Sans-serif" font-size="16" id="id29" y="193.45608333333388" x="657.3911111111124">xjagz</text>
<text font-family="Sans-serif" font-size="16" id="id30" y="191.99950000000035" x="657.0773809523823">mattring</text>
<text font-family="Sans-serif" font-size="16" id="id31" y="194.43783333333366" x="654.9000000000009">ktmangus</text>
<text font-family="Sans-serif" font-size="16" id="id32" y="151.66240833333177" x="650.7231746031741">bpowley</text>
<text font-family="Sans-serif" font-size="16" id="id33" y="136.75841666666713" x="654.9889682539688">kdmnance</text>
<text font-family="Sans-serif" font-size="16" id="id34" y="136.75199999999973" x="654.9936507936508">alansor</text>
<text font-family="Sans-serif" font-size="16" id="id35" y="136.75199999999973" x="654.9936507936508">jkerchal</text>
<text font-family="Sans-serif" font-size="16" id="id36" y="139.69083333333322" x="661.2448412698427">colly</text>
<text font-family="Sans-serif" font-size="16" id="id37" y="139.8448333333334" x="661.8020634920651">ALHennings</text>
<text font-family="Sans-serif" font-size="16" id="id38" y="139.3712833333341" x="666.3698809523805">bmhogan</text>
<text font-family="Sans-serif" font-size="16" id="id39" y="119.96130299999926" x="685.1395228571423">rfred</text>
<text font-family="Sans-serif" font-size="16" id="id40" y="110.27683333333337" x="661.0715873015886">robertf</text>
<text font-family="Sans-serif" font-size="16" id="id41" y="100.15133333333372" x="661.0247619047625">maddendb</text>
<text font-family="Sans-serif" font-size="16" id="id42" y="98.21221666666615" x="660.0189523809531">edebanva</text>
<text font-family="Sans-serif" font-size="16" id="id43" y="95.54865833333358" x="661.496293650795">shc</text>
<text font-family="Sans-serif" font-size="16" id="id44" y="95.56469999999968" x="661.5253253968262">anthonysuper</text>
<text font-family="Sans-serif" font-size="16" id="id45" y="95.31059999999945" x="661.5248571428575">jzuniga7</text>
<text font-family="Sans-serif" font-size="16" id="id46" y="94.73566666666564" x="661.3946825396827">mjdunn</text>
<text font-family="Sans-serif" font-size="16" id="id47" y="93.92113499999994" x="663.012687301589">zachgood</text>
<text font-family="Sans-serif" font-size="16" id="id48" y="94.8665666666667" x="663.6277857142852">jrmuzzy1</text>
<text font-family="Sans-serif" font-size="16" id="id49" y="94.89030833333305" x="664.4210079365083">mepsheeh</text>
<text font-family="Sans-serif" font-size="16" id="id50" y="94.79213333333308" x="666.5951111111112">bjarrett</text>
<text font-family="Sans-serif" font-size="16" id="id51" y="96.30582499999966" x="667.1958809523815">ajthomps</text>
<text font-family="Sans-serif" font-size="16" id="id52" y="133.51800000000068" x="715.2148571428576">gtjohnso</text>
<text font-family="Sans-serif" font-size="16" id="id53" y="132.10569166666698" x="726.4562301587304">jkraft</text>
<text font-family="Sans-serif" font-size="16" id="id54" y="131.34916666666646" x="726.7957142857134">cTre19</text>
<text font-family="Sans-serif" font-size="16" id="id55" y="251.02449166666722" x="664.8695952380954">rumps</text>
<text font-family="Sans-serif" font-size="16" id="id56" y="276.6680583333338" x="660.110261904762">chundrus</text>
<text font-family="Sans-serif" font-size="16" id="id57" y="280.22866666666664" x="668.5027777777791">cmarques</text>
<text font-family="Sans-serif" font-size="16" id="id58" y="286.1146749999995" x="673.1492619047614">nfredrik</text>
<text font-family="Sans-serif" font-size="16" id="id59" y="287.87669166666615" x="676.2275634920636">noahcain</text>
<text font-family="Sans-serif" font-size="16" id="id60" y="289.85002199999985" x="673.3088428571417">Findawg</text>
<text font-family="Sans-serif" font-size="16" id="id61" y="291.67288149999996" x="671.7178938095245">wilsonno</text>
<text font-family="Sans-serif" font-size="16" id="id62" y="289.9012783333329" x="668.3732119047629">factored</text>
<text font-family="Sans-serif" font-size="16" id="id63" y="300.40560550000026" x="674.0834566666671">mmkala</text>
<text font-family="Sans-serif" font-size="16" id="id64" y="304.96619999999996" x="675.8365995238083">ashellum</text>
<text font-family="Sans-serif" font-size="16" id="id65" y="304.3296666666674" x="677.5307142857141">jimx</text>
<text font-family="Sans-serif" font-size="16" id="id66" y="311.18010000000106" x="672.5157423809535">lsouth</text>
<text font-family="Sans-serif" font-size="16" id="id67" y="312.01173850000066" x="673.6114285714277">amkreien</text>
<text font-family="Sans-serif" font-size="16" id="id68" y="324.85529999999875" x="670.357999999999">nicklane</text>
<text font-family="Sans-serif" font-size="16" id="id69" y="330.56741666666517" x="676.0369841269833">bcgood</text>
<text font-family="Sans-serif" font-size="16" id="id70" y="311.22630000000095" x="705.994028095239">devbot</text>
<text font-family="Sans-serif" font-size="16" id="id71" y="289.0528795000002" x="701.5289080952389">athai</text>
<text font-family="Sans-serif" font-size="16" id="id72" y="283.317008333333" x="678.134293650794">ctapparo</text>
<text font-family="Sans-serif" font-size="16" id="id73" y="287.3780910000005" x="637.5860285714291">brandtr</text>
<text font-family="Sans-serif" font-size="16" id="id74" y="290.6865500000003" x="587.0223730158727">kingtn</text>
<text font-family="Sans-serif" font-size="16" id="id75" y="368.1055583333344" x="593.8392142857136">jrunyan7</text>
<text font-family="Sans-serif" font-size="16" id="id76" y="375.00860833333377" x="610.7862619047633">woster</text>
<text font-family="Sans-serif" font-size="16" id="id77" y="463.27819999999974" x="665.6328492063498">pjbrunn</text>
<text font-family="Sans-serif" font-size="16" id="id78" y="439.8852149999989" x="697.9381400000019">curtwebb</text>
<text font-family="Sans-serif" font-size="16" id="id79" y="439.8621149999998" x="697.9531428571429">cschulze</text>
<text font-family="Sans-serif" font-size="16" id="id80" y="463.5162583333339" x="706.0309920634922">hullings</text>
<text font-family="Sans-serif" font-size="16" id="id81" y="487.4007600000002" x="704.9670628571446">cjuracek</text>
<text font-family="Sans-serif" font-size="16" id="id82" y="490.2532250000007" x="705.8970714285728">dlaw</text>
<text font-family="Sans-serif" font-size="16" id="id83" y="500.2850416666661" x="703.7866507936511">toddw</text>
<text font-family="Sans-serif" font-size="16" id="id84" y="632.3881666666674" x="739.9878333333332">velthuis</text>
<text font-family="Sans-serif" font-size="16" id="id85" y="341.37457200000006" x="712.2139485714284">tjohns0n</text>
<text font-family="Sans-serif" font-size="16" id="id86" y="209.95204999999885" x="338.7419444444452">hunterv</text>
<text font-family="Sans-serif" font-size="16" id="id87" y="116.1705416666665" x="361.91349206349184">bobby20</text>
<text font-family="Sans-serif" font-size="16" id="id88" y="117.94218333333343" x="292.69338095238106">bahashmi</text>
<text font-family="Sans-serif" font-size="16" id="id89" y="335.5063250000011" x="282.67883333333515">ekdoan</text>
<text font-family="Sans-serif" font-size="16" id="id90" y="425.2331416666662" x="45.06288888888841">ahalbrig</text>
<text font-family="Sans-serif" font-size="16" id="id91" y="815.8214166666658" x="528.1576984126992">kclipp</text>
</g>
</svg>
